# xmcd CD Database Entry
#
# Track frame offsets:
# 150
# 62025
# 96225
# 120750
# 144600
#
# Disc length: 2677 seconds
#
# Revision: 2
# Processed by: cddbd v1.4PL0 Copyright (c) Steve Scherf et al.
# Submitted via: tcd 2.0b
#
DISCID=3d0a7305
DTITLE=Pink Floyd - Wish you were here
DYEAR=1900
DGENRE=
TTITLE0=Shine you Crazy Diamond (Part I)
TTITLE1=Welcome To The Machine
TTITLE2=Have a Cigar
TTITLE3=Wish You Were Here
TTITLE4=Shine you Crazy Diamond (Part II)
EXTD=
EXTT0=
EXTT1=
EXTT2=
EXTT3=
EXTT4=
PLAYORDER=
